<?xml version="1.0" encoding="utf-8"?>
<!-- Generator: Adobe Illustrator 27.7.0, SVG Export Plug-In . SVG Version: 6.00 Build 0)  -->
<svg version="1.1" id="Layer_1" xmlns="http://www.w3.org/2000/svg" xmlns:xlink="http://www.w3.org/1999/xlink" x="0px" y="0px"
	 viewBox="0 0 533.3 533.3" style="enable-background:new 0 0 533.3 533.3;" xml:space="preserve">
<style type="text/css">
	.st0{fill:#1ED660;}
</style>
<rect x="64.2" y="131.3" width="406.4" height="261.3"/>
<path class="st0" d="M424.4,236.4c-86-51-227.7-55.7-309.8-30.8c-13.2,4-27.1-3.4-31.1-16.6c-4-13.2,3.4-27.1,16.6-31.1
	c94.2-28.6,250.8-23.1,349.7,35.7c11.9,7,15.7,22.3,8.7,34.2C451.6,239.5,436.2,243.4,424.4,236.4 M421.6,312
	c-6,9.8-18.8,12.9-28.6,6.8c-71.7-44-180.9-56.8-265.7-31.1c-11,3.3-22.6-2.9-25.9-13.9c-3.3-11,2.9-22.6,13.9-25.9
	c96.9-29.4,217.3-15.2,299.6,35.4C424.5,289.4,427.6,302.2,421.6,312 M389,384.6c-4.8,7.8-15,10.3-22.8,5.6c0,0,0,0,0,0
	c-62.6-38.3-141.4-46.9-234.3-25.7c-8.9,2-17.9-3.5-19.9-12.5c0,0,0,0,0,0c-2.1-8.9,3.5-17.8,12.5-19.9c0,0,0,0,0,0
	c101.6-23.2,188.7-13.2,259,29.7C391.3,366.6,393.8,376.8,389,384.6C389,384.6,389,384.6,389,384.6 M266.7,0
	C119.4,0,0,119.4,0,266.7c0,147.3,119.4,266.7,266.7,266.7c147.3,0,266.7-119.4,266.7-266.7C533.3,119.4,413.9,0,266.7,0"/>
</svg>
