<?xml version="1.0" encoding="utf-8"?>
<!-- Generator: Adobe Illustrator 27.7.0, SVG Export Plug-In . SVG Version: 6.00 Build 0)  -->
<svg version="1.1" id="Capa_1" xmlns="http://www.w3.org/2000/svg" xmlns:xlink="http://www.w3.org/1999/xlink" x="0px" y="0px"
	 viewBox="0 0 800 800" style="enable-background:new 0 0 800 800;" xml:space="preserve">
<style type="text/css">
	.st0{fill:#FFFFFF;}
</style>
<path class="st0" d="M495,400l297.1-297.1c10.5-10.6,10.5-27.6,0-38.2L735.3,7.9c-5.1-5-11.9-7.9-19.1-7.9s-14,2.8-19.1,7.9
	L400,305.1L102.9,7.9c-5.1-5-12-7.9-19.1-7.9c-7.2,0-14,2.8-19.1,7.9L7.9,64.7c-10.6,10.5-10.6,27.6,0,38.2L305,400L7.9,697.1
	c-10.5,10.6-10.5,27.6,0,38.2l56.8,56.8c5.1,5.1,11.9,7.9,19.1,7.9s14-2.8,19.1-7.9L400,495l297.1,297.1c5.1,5.1,11.9,7.9,19.1,7.9
	c7.2,0,14-2.8,19.1-7.9l56.8-56.8c10.5-10.5,10.5-27.6,0-38.2L495,400z"/>
</svg>
